<svg xmlns="http://www.w3.org/2000/svg" width="800" height="800" fill="#fff" viewBox="0 0 64 64"><g fill="none" fill-rule="evenodd"><path stroke="#ededed" stroke-linecap="round" stroke-width="6" d="M6 20c0-4.97 11.864-9 26.5-9h0C47.136 11 59 15.03 59 20"/><path fill="#fff" d="M23 4c-6.627 0-11 7.611-11 17s4.373 39 11 39c3.866 0 4.305-24.59 9.5-24.612C38.695 35.41 38.134 60 42 60c6.627 0 11-29.611 11-39S48.627 4 42 4c-3.167 0-6.333 3-9.5 3S26.167 4 23 4Z"/><path stroke="#ededed" stroke-linecap="round" stroke-width="6" d="M6 20c0 4.97 11.864 9 26.5 9m15.42-1.68C54.629 25.687 59 23.017 59 20"/><path fill="#ededed" d="m40 29-9 6V23z"/><path stroke="#fff" stroke-linecap="round" stroke-width="2" d="M25 8a8 8 0 0 0-8 8"/></g></svg>