<svg xmlns="http://www.w3.org/2000/svg" viewBox="0 0 600 400" fill="none">
  <rect width="600" height="400" fill="#F3E5F5"/>
  <rect x="0" y="0" width="600" height="400" rx="12" fill="#F3E5F5"/>
  <ellipse cx="300" cy="170" rx="100" ry="50" fill="#9C27B0" opacity="0.15"/>
  <path d="M220 150 Q240 130, 260 145 Q280 130, 300 145 Q320 130, 340 145 Q360 130, 380 150 L380 170 Q360 185, 340 175 Q320 185, 300 175 Q280 185, 260 175 Q240 185, 220 170 Z" fill="white" stroke="#9C27B0" stroke-width="3"/>
  <line x1="250" y1="145" x2="250" y2="175" stroke="#9C27B0" stroke-width="1.5" opacity="0.5"/>
  <line x1="275" y1="140" x2="275" y2="178" stroke="#9C27B0" stroke-width="1.5" opacity="0.5"/>
  <line x1="300" y1="140" x2="300" y2="178" stroke="#9C27B0" stroke-width="1.5" opacity="0.5"/>
  <line x1="325" y1="140" x2="325" y2="178" stroke="#9C27B0" stroke-width="1.5" opacity="0.5"/>
  <line x1="350" y1="145" x2="350" y2="175" stroke="#9C27B0" stroke-width="1.5" opacity="0.5"/>
  <path d="M230 190 Q240 210, 260 200 Q280 210, 300 200 Q320 210, 340 200 Q360 210, 370 190" fill="white" stroke="#9C27B0" stroke-width="2"/>
  <rect x="220" y="280" width="160" height="24" rx="12" fill="#9C27B0"/>
  <text x="300" y="297" text-anchor="middle" fill="white" font-family="Arial, sans-serif" font-size="14" font-weight="bold">Dentures</text>
  <circle cx="160" cy="100" r="6" fill="#CE93D8"/>
  <circle cx="440" cy="120" r="4" fill="#CE93D8"/>
  <circle cx="140" cy="260" r="5" fill="#CE93D8"/>
  <circle cx="460" cy="240" r="7" fill="#CE93D8"/>
</svg>
