<svg xmlns="http://www.w3.org/2000/svg" viewBox="0 0 600 400" fill="none">
  <rect width="600" height="400" fill="#EDE7F6"/>
  <rect x="0" y="0" width="600" height="400" rx="12" fill="#EDE7F6"/>
  <ellipse cx="300" cy="170" rx="90" ry="55" fill="#673AB7" opacity="0.15"/>
  <path d="M230 150 Q240 130, 260 140 Q280 130, 300 140 Q320 130, 340 140 Q360 130, 370 150 L370 170 Q360 185, 340 178 Q320 185, 300 178 Q280 185, 260 178 Q240 185, 230 170 Z" fill="white" stroke="#673AB7" stroke-width="3"/>
  <rect x="248" y="140" width="16" height="16" rx="3" fill="#673AB7" opacity="0.8"/>
  <rect x="272" y="135" width="16" height="16" rx="3" fill="#673AB7" opacity="0.8"/>
  <rect x="296" y="133" width="16" height="16" rx="3" fill="#673AB7" opacity="0.8"/>
  <rect x="320" y="135" width="16" height="16" rx="3" fill="#673AB7" opacity="0.8"/>
  <rect x="344" y="140" width="16" height="16" rx="3" fill="#673AB7" opacity="0.8"/>
  <line x1="240" y1="148" x2="370" y2="148" stroke="#673AB7" stroke-width="2"/>
  <line x1="240" y1="160" x2="370" y2="160" stroke="#673AB7" stroke-width="2"/>
  <rect x="220" y="280" width="160" height="24" rx="12" fill="#673AB7"/>
  <text x="300" y="297" text-anchor="middle" fill="white" font-family="Arial, sans-serif" font-size="14" font-weight="bold">Dental Braces</text>
  <circle cx="160" cy="100" r="6" fill="#B39DDB"/>
  <circle cx="440" cy="120" r="4" fill="#B39DDB"/>
  <circle cx="140" cy="260" r="5" fill="#B39DDB"/>
  <circle cx="460" cy="250" r="7" fill="#B39DDB"/>
</svg>
