<svg xmlns="http://www.w3.org/2000/svg" viewBox="0 0 600 400" fill="none">
  <rect width="600" height="400" fill="#E3F2FD"/>
  <rect x="0" y="0" width="600" height="400" rx="12" fill="#E3F2FD"/>
  <rect x="200" y="80" width="200" height="160" rx="8" fill="#2196F3" opacity="0.15"/>
  <rect x="210" y="90" width="180" height="140" rx="4" fill="white" stroke="#2196F3" stroke-width="2"/>
  <line x1="230" y1="120" x2="370" y2="120" stroke="#2196F3" stroke-width="2" opacity="0.3"/>
  <line x1="230" y1="145" x2="370" y2="145" stroke="#2196F3" stroke-width="2" opacity="0.3"/>
  <line x1="230" y1="170" x2="370" y2="170" stroke="#2196F3" stroke-width="2" opacity="0.3"/>
  <line x1="230" y1="195" x2="370" y2="195" stroke="#2196F3" stroke-width="2" opacity="0.3"/>
  <path d="M260 100 L260 180" stroke="#2196F3" stroke-width="3"/>
  <circle cx="260" cy="110" r="8" fill="#2196F3"/>
  <circle cx="260" cy="135" r="6" fill="#2196F3" opacity="0.7"/>
  <circle cx="260" cy="155" r="7" fill="#2196F3" opacity="0.8"/>
  <circle cx="260" cy="175" r="5" fill="#2196F3" opacity="0.6"/>
  <rect x="220" y="280" width="160" height="24" rx="12" fill="#2196F3"/>
  <text x="300" y="297" text-anchor="middle" fill="white" font-family="Arial, sans-serif" font-size="14" font-weight="bold">Dental X-ray</text>
  <circle cx="150" cy="100" r="6" fill="#64B5F6"/>
  <circle cx="450" cy="130" r="4" fill="#64B5F6"/>
  <circle cx="400" cy="260" r="5" fill="#64B5F6"/>
</svg>
