<svg xmlns="http://www.w3.org/2000/svg" viewBox="0 0 600 400" fill="none">
  <rect width="600" height="400" fill="#FCE4EC"/>
  <rect x="0" y="0" width="600" height="400" rx="12" fill="#FCE4EC"/>
  <circle cx="300" cy="170" r="70" fill="#E91E63" opacity="0.15"/>
  <path d="M260 130 C260 110, 340 110, 340 130 L340 160 C340 180, 320 190, 300 200 C280 190, 260 180, 260 160 Z" fill="white" stroke="#E91E63" stroke-width="3"/>
  <path d="M265 140 Q280 135, 300 140 Q320 135, 335 140" fill="#E91E63" opacity="0.3"/>
  <path d="M265 150 Q280 145, 300 150 Q320 145, 335 150" fill="#E91E63" opacity="0.2"/>
  <path d="M265 160 Q280 155, 300 160 Q320 155, 335 160" fill="#E91E63" opacity="0.15"/>
  <path d="M270 170 L270 190" stroke="#E91E63" stroke-width="2" opacity="0.4"/>
  <path d="M290 175 L290 195" stroke="#E91E63" stroke-width="2" opacity="0.4"/>
  <path d="M310 175 L310 195" stroke="#E91E63" stroke-width="2" opacity="0.4"/>
  <path d="M330 170 L330 190" stroke="#E91E63" stroke-width="2" opacity="0.4"/>
  <path d="M260 180 Q300 195 340 180" stroke="#E91E63" stroke-width="2"/>
  <rect x="220" y="280" width="160" height="24" rx="12" fill="#E91E63"/>
  <text x="300" y="297" text-anchor="middle" fill="white" font-family="Arial, sans-serif" font-size="14" font-weight="bold">Gum Treatment</text>
  <circle cx="170" cy="100" r="6" fill="#F48FB1"/>
  <circle cx="430" cy="110" r="4" fill="#F48FB1"/>
  <circle cx="140" cy="250" r="5" fill="#F48FB1"/>
  <circle cx="460" cy="260" r="7" fill="#F48FB1"/>
</svg>
