<svg xmlns="http://www.w3.org/2000/svg" viewBox="0 0 600 400" fill="none">
  <rect width="600" height="400" fill="#E8F5E9"/>
  <rect x="0" y="0" width="600" height="400" rx="12" fill="#E8F5E9"/>
  <ellipse cx="300" cy="170" rx="90" ry="60" fill="#4CAF50" opacity="0.15"/>
  <path d="M230 150 Q230 120, 300 115 Q370 120, 370 150 L370 170 Q370 195, 300 200 Q230 195, 230 170 Z" fill="white" stroke="#4CAF50" stroke-width="3"/>
  <path d="M240 150 Q240 130, 300 125 Q360 130, 360 150" fill="#4CAF50" opacity="0.2"/>
  <path d="M250 160 L250 180" stroke="#4CAF50" stroke-width="2" opacity="0.4"/>
  <path d="M275 155 L275 185" stroke="#4CAF50" stroke-width="2" opacity="0.4"/>
  <path d="M300 153 L300 188" stroke="#4CAF50" stroke-width="2" opacity="0.4"/>
  <path d="M325 155 L325 185" stroke="#4CAF50" stroke-width="2" opacity="0.4"/>
  <path d="M350 160 L350 180" stroke="#4CAF50" stroke-width="2" opacity="0.4"/>
  <rect x="220" y="280" width="160" height="24" rx="12" fill="#4CAF50"/>
  <text x="300" y="297" text-anchor="middle" fill="white" font-family="Arial, sans-serif" font-size="14" font-weight="bold">Gum Shield</text>
  <circle cx="160" cy="100" r="6" fill="#81C784"/>
  <circle cx="440" cy="120" r="4" fill="#81C784"/>
  <circle cx="140" cy="260" r="5" fill="#81C784"/>
  <circle cx="460" cy="250" r="7" fill="#81C784"/>
</svg>
