<svg xmlns="http://www.w3.org/2000/svg" viewBox="0 0 600 400" fill="none">
  <rect width="600" height="400" fill="#FFF3E0"/>
  <rect x="0" y="0" width="600" height="400" rx="12" fill="#FFF3E0"/>
  <ellipse cx="300" cy="170" rx="60" ry="80" fill="#FF9800" opacity="0.2"/>
  <path d="M270 120 C270 100, 330 100, 330 120 L330 160 C330 180, 320 190, 300 200 C280 190, 270 180, 270 160 Z" fill="#FFFFFF" stroke="#FF9800" stroke-width="3"/>
  <ellipse cx="300" cy="140" rx="15" ry="12" fill="#FF9800" opacity="0.6"/>
  <path d="M285 140 L315 140" stroke="#FF9800" stroke-width="2"/>
  <path d="M300 128 L300 152" stroke="#FF9800" stroke-width="2"/>
  <rect x="285" y="200" width="30" height="40" rx="4" fill="#FF9800"/>
  <rect x="290" y="205" width="20" height="30" rx="2" fill="#FFF"/>
  <rect x="220" y="280" width="160" height="24" rx="12" fill="#FF9800"/>
  <text x="300" y="297" text-anchor="middle" fill="white" font-family="Arial, sans-serif" font-size="14" font-weight="bold">Tooth Filling</text>
  <circle cx="180" cy="100" r="6" fill="#FFB74D"/>
  <circle cx="420" cy="110" r="4" fill="#FFB74D"/>
  <circle cx="150" cy="260" r="5" fill="#FFB74D"/>
  <circle cx="450" cy="250" r="7" fill="#FFB74D"/>
</svg>
