<svg xmlns="http://www.w3.org/2000/svg" viewBox="0 0 600 400" fill="none">
  <rect width="600" height="400" fill="#E0F7FA"/>
  <rect x="0" y="0" width="600" height="400" rx="12" fill="#E0F7FA"/>
  <circle cx="300" cy="170" r="70" fill="#00BCD4" opacity="0.15"/>
  <path d="M250 140 C250 120, 350 120, 350 140 L350 160 C350 180, 330 190, 300 200 C270 190, 250 180, 250 160 Z" fill="white" stroke="#00BCD4" stroke-width="3"/>
  <path d="M260 140 L260 170" stroke="#00BCD4" stroke-width="2" opacity="0.5"/>
  <path d="M280 135 L280 175" stroke="#00BCD4" stroke-width="2" opacity="0.5"/>
  <path d="M300 133 L300 178" stroke="#00BCD4" stroke-width="2" opacity="0.5"/>
  <path d="M320 135 L320 175" stroke="#00BCD4" stroke-width="2" opacity="0.5"/>
  <path d="M340 140 L340 170" stroke="#00BCD4" stroke-width="2" opacity="0.5"/>
  <path d="M255 145 Q300 135 345 145" fill="#00BCD4" opacity="0.3"/>
  <rect x="220" y="280" width="160" height="24" rx="12" fill="#00BCD4"/>
  <text x="300" y="297" text-anchor="middle" fill="white" font-family="Arial, sans-serif" font-size="14" font-weight="bold">Veneers</text>
  <circle cx="170" cy="100" r="6" fill="#4DD0E1"/>
  <circle cx="430" cy="110" r="4" fill="#4DD0E1"/>
  <circle cx="140" cy="250" r="5" fill="#4DD0E1"/>
  <circle cx="460" cy="260" r="7" fill="#4DD0E1"/>
</svg>
